# Blender v2.75 (sub 0) OBJ File: ''
# www.blender.org
mtllib RockA.mtl
o Icosphere
v 0.039093 -0.009839 -0.050677
v 0.339142 -0.014843 0.494491
v -0.172216 -0.000658 0.519620
v -0.499142 0.003299 -0.028496
v -0.153596 0.003297 -0.696967
v 0.523667 0.000400 -0.290453
v 0.135377 0.692537 0.523051
v -0.403637 1.244888 0.268014
v -0.403637 0.696808 -0.293554
v 0.155461 0.617700 -0.480795
v 0.547017 0.609736 0.088196
v 0.000933 1.987041 -0.011672
v -0.109524 -0.050908 0.325931
v 0.237595 -0.057852 0.295773
v 0.068084 -0.035418 0.639778
v 0.541022 -0.035417 0.187459
v 0.331650 -0.049210 -0.205854
v -0.293003 -0.046739 -0.060356
v -0.383835 -0.018464 0.279928
v -0.089896 -0.046739 -0.458695
v -0.383835 -0.018464 -0.423138
v 0.147903 -0.018464 -0.595910
v 0.450765 0.181428 0.476432
v 0.727038 0.195186 -0.020923
v -0.062217 0.255913 0.707491
v 0.200165 0.181428 0.755985
v -0.530805 0.418865 0.173149
v -0.327699 0.418863 0.452702
v -0.327699 0.208912 -0.609385
v -0.530805 0.269330 -0.213007
v 0.377436 0.208912 -0.502105
v 0.000933 0.208912 -0.716166
v 0.377633 0.738198 0.307558
v -0.146038 1.194611 0.452696
v -0.474666 1.194611 -0.085333
v -0.146038 0.740704 -0.452477
v 0.395647 0.740702 -0.279170
v 0.091762 1.470457 0.258266
v 0.294869 1.470449 -0.021281
v -0.236866 1.903542 0.149919
v -0.236866 1.470457 -0.400611
v 0.091762 1.470457 -0.393147
vt 0.277700 0.615865
vt 0.276306 0.643740
vt 0.269187 0.669523
vt 0.275244 0.660590
vt 0.283754 0.611618
vt 0.271486 0.635967
vt 0.281387 0.576226
vt 0.285668 0.578878
vt 0.328277 0.272846
vt 0.325682 0.267342
vt 0.332565 0.244958
vt 0.341296 0.307241
vt 0.343610 0.308842
vt 0.335849 0.347775
vt 0.320786 0.316889
vt 0.323973 0.314438
vt 0.313534 0.372075
vt 0.313542 0.319282
vt 0.317201 0.314892
vt 0.310206 0.345696
vt 0.323920 0.311252
vt 0.321164 0.301715
vt 0.327937 0.277550
vt 0.334645 0.253476
vt 0.330474 0.357625
vt 0.313149 0.352355
vt 0.319851 0.291773
vt 0.323687 0.263270
vt 0.325639 0.267144
vt 0.329798 0.294025
vt 0.291546 0.467989
vt 0.299225 0.428182
vt 0.300502 0.460220
vt 0.325220 0.332314
vt 0.331007 0.291801
vt 0.334796 0.308958
vt 0.305789 0.471589
vt 0.299673 0.477108
vt 0.307614 0.420954
vt 0.270303 0.603429
vt 0.263174 0.637087
vt 0.264602 0.589478
vt 0.305099 0.388830
vt 0.311211 0.361560
vt 0.308711 0.414899
vt 0.297530 0.568608
vt 0.290168 0.600007
vt 0.294439 0.554615
vt 0.272293 0.547807
vt 0.276611 0.562058
vt 0.282804 0.633113
vt 0.257295 0.630687
vt 0.310426 0.444717
vt 0.332287 0.365837
vt 0.323651 0.377606
vt 0.328878 0.350400
vt 0.321930 0.425434
vt 0.314668 0.452893
vt 0.282878 0.633451
vt 0.272995 0.690853
vt 0.281385 0.626688
vt 0.270828 0.722496
vt 0.292054 0.491828
vt 0.268672 0.697013
vt 0.307352 0.354146
vt 0.289381 0.520962
vt 0.277434 0.585389
vt 0.267286 0.641667
vt 0.260966 0.677837
vt 0.314497 0.452123
vt 0.304144 0.502933
vt 0.294581 0.544509
vt 0.291314 0.517536
vt 0.320853 0.388703
vt 0.316561 0.371561
vt 0.324245 0.329657
vt 0.312111 0.441318
vt 0.282943 0.491813
vt 0.284947 0.477151
vt 0.293768 0.428521
vt 0.328865 0.348820
vt 0.329359 0.346094
vt 0.340508 0.294793
vt 0.297283 0.556747
vt 0.300841 0.527517
vt 0.303577 0.539902
vt 0.339304 0.341853
vt 0.329212 0.282172
vt 0.329600 0.230629
vt 0.290609 0.556704
vt 0.290376 0.575493
vt 0.288008 0.544925
vt 0.283736 0.552407
vt 0.275199 0.599257
vt 0.267030 0.652961
vt 0.264603 0.681733
vt 0.265046 0.696312
vt 0.267860 0.694977
vn -0.030300 -0.992300 -0.120200
vn 0.125400 -0.981000 0.148200
vn 0.112000 -0.991600 -0.063900
vn 0.108700 -0.992500 0.055400
vn -0.073500 -0.990900 0.112800
vn 0.759600 -0.383700 0.525200
vn -0.456300 -0.390000 0.799800
vn -0.917100 -0.228400 0.326700
vn -0.708000 -0.334600 -0.621900
vn 0.608400 -0.313400 -0.729100
vn 0.700100 -0.340400 0.627600
vn -0.734200 -0.167100 0.658100
vn -0.995000 -0.093300 0.036100
vn -0.305900 0.142000 -0.941400
vn 0.808200 -0.030100 -0.588100
vn 0.606000 0.286500 0.742000
vn -0.523600 0.277000 0.805700
vn -0.836200 0.105800 -0.538100
vn -0.053300 0.098200 -0.993700
vn 0.925600 0.233200 -0.298200
vn 0.782400 0.453100 -0.427300
vn 0.842800 0.279100 -0.460300
vn 0.599200 0.126000 -0.790600
vn 0.018200 0.596000 -0.802800
vn 0.022600 0.073700 -0.997000
vn -0.524500 -0.004800 -0.851400
vn -0.571300 0.645100 -0.507400
vn -0.865900 0.393100 -0.309200
vn -0.951100 0.268300 0.153000
vn 0.371200 0.480500 0.794600
vn 0.246700 0.407200 0.879400
vn 0.349600 0.319400 0.880800
vn 0.737900 0.409900 0.536100
vn 0.762300 0.334900 0.553800
vn 0.831900 0.302900 0.465000
vn 0.876600 0.434900 -0.206100
vn 0.793500 0.212000 -0.570500
vn 0.508800 0.318000 -0.800000
vn 0.107300 0.465300 -0.878600
vn -0.288300 0.360200 -0.887200
vn -0.529500 0.401400 -0.747400
vn -0.802600 0.129100 -0.582300
vn -0.997600 0.063900 -0.024800
vn -0.975500 0.129800 0.177600
vn -0.560600 0.131300 0.817600
vn -0.635600 0.148900 0.757500
vn 0.258100 0.274500 0.926300
vn 0.565800 0.400300 0.720900
vn 0.713200 0.287600 0.639300
vn 0.831900 0.258200 0.491100
vn 0.471600 0.299300 -0.829500
vn 0.489500 -0.138900 -0.860900
vn 0.283900 -0.298400 -0.911200
vn -0.866400 0.169200 -0.469800
vn -0.889900 -0.136700 -0.435200
vn -0.923800 -0.286200 -0.254100
vn -0.807700 0.057000 0.586800
vn -0.802400 -0.127300 0.583000
vn -0.733000 -0.166500 0.659500
vn -0.052400 0.408600 0.911200
vn -0.260900 -0.327700 0.908000
vn 0.409200 -0.612000 0.676800
vn 0.845400 0.241700 0.476300
vn 0.846200 -0.264400 0.462700
vn 0.740900 -0.667200 -0.076900
vn 0.179700 -0.970400 -0.161200
vn 0.057300 -0.992800 -0.105300
vn -0.001900 -0.978800 -0.205000
vn -0.115200 -0.977900 -0.174600
vn -0.101800 -0.993400 -0.051900
vn -0.238200 -0.971100 -0.016000
vn -0.233100 -0.972300 0.018600
vn -0.125400 -0.990900 0.048900
vn -0.148500 -0.967800 0.203000
vn 0.215800 -0.973100 -0.080800
vn 0.072500 -0.997400 -0.003600
vn -0.157400 -0.986400 -0.046500
vn -0.226300 -0.958200 0.175300
vn -0.015000 -0.998200 0.057700
vn 0.147600 -0.979600 0.136600
usemtl None
s off
f 1/1/1 14/2/1 13/3/1
f 2/4/2 14/2/2 16/5/2
f 1/1/3 13/3/3 18/6/3
f 1/1/4 18/6/4 20/7/4
f 1/1/5 20/7/5 17/8/5
f 2/9/6 16/10/6 23/11/6
f 3/12/7 15/13/7 25/14/7
f 4/15/8 19/16/8 27/17/8
f 5/18/9 21/19/9 29/20/9
f 6/21/10 22/22/10 31/23/10
f 2/9/11 23/11/11 26/24/11
f 3/12/12 25/14/12 28/25/12
f 4/15/13 27/17/13 30/26/13
f 5/27/14 29/28/14 32/29/14
f 6/21/15 31/23/15 24/30/15
f 7/31/16 33/32/16 38/33/16
f 8/34/17 34/35/17 40/36/17
f 9/37/18 35/38/18 41/39/18
f 10/40/19 36/41/19 42/42/19
f 11/43/20 37/44/20 39/45/20
f 39/46/21 42/47/21 12/48/21
f 39/49/22 37/50/22 42/42/22
f 37/50/23 10/40/23 42/42/23
f 42/47/24 41/51/24 12/48/24
f 42/42/25 36/41/25 41/52/25
f 36/53/26 9/37/26 41/39/26
f 41/54/27 40/55/27 12/56/27
f 41/54/28 35/57/28 40/55/28
f 35/57/29 8/58/29 40/55/29
f 40/59/30 38/60/30 12/61/30
f 40/59/31 34/62/31 38/60/31
f 34/63/32 7/31/32 38/33/32
f 38/60/33 39/64/33 12/61/33
f 38/33/34 33/32/34 39/45/34
f 33/32/35 11/43/35 39/45/35
f 24/65/36 37/44/36 11/43/36
f 24/66/37 31/67/37 37/50/37
f 31/67/38 10/40/38 37/50/38
f 32/68/39 36/41/39 10/40/39
f 32/68/40 29/69/40 36/41/40
f 29/70/41 9/37/41 36/53/41
f 30/71/42 35/38/42 9/37/42
f 30/71/43 27/72/43 35/38/43
f 27/72/44 8/73/44 35/38/44
f 28/74/45 34/75/45 8/76/45
f 28/74/46 25/77/46 34/75/46
f 25/78/47 7/31/47 34/63/47
f 26/79/48 33/32/48 7/31/48
f 26/79/49 23/80/49 33/32/49
f 23/80/50 11/43/50 33/32/50
f 31/67/51 32/68/51 10/40/51
f 31/23/52 22/22/52 32/29/52
f 22/22/53 5/27/53 32/29/53
f 29/70/54 30/71/54 9/37/54
f 29/20/55 21/19/55 30/26/55
f 21/19/56 4/15/56 30/26/56
f 27/81/57 28/74/57 8/76/57
f 27/82/58 19/83/58 28/25/58
f 19/83/59 3/12/59 28/25/59
f 25/84/60 26/85/60 7/86/60
f 25/14/61 15/13/61 26/87/61
f 15/88/62 2/9/62 26/24/62
f 23/80/63 24/65/63 11/43/63
f 23/11/64 16/10/64 24/89/64
f 16/5/65 6/90/65 24/91/65
f 17/8/66 22/92/66 6/90/66
f 17/8/67 20/7/67 22/92/67
f 20/7/68 5/93/68 22/92/68
f 20/7/69 21/94/69 5/93/69
f 20/7/70 18/6/70 21/94/70
f 18/6/71 4/95/71 21/94/71
f 18/6/72 19/96/72 4/95/72
f 18/6/73 13/3/73 19/96/73
f 13/3/74 3/97/74 19/96/74
f 16/5/75 17/8/75 6/90/75
f 16/5/76 14/2/76 17/8/76
f 14/2/77 1/1/77 17/8/77
f 13/3/78 15/98/78 3/97/78
f 13/3/79 14/2/79 15/98/79
f 14/2/80 2/4/80 15/98/80
